<?xml version="1.0" encoding="UTF-8"?>
<svg id="uuid-c3995936-895e-45bf-8930-e1a0b8e26fa0" data-name="Layer 1" xmlns="http://www.w3.org/2000/svg" viewBox="0 0 1187.5611 234.1451">
  <g>
    <path d="M121.5192,229.7123l-12.9787-120.8244-48.8022,120.8244H25.2627L0,60.0718H38.5749l15.3549,117.4199L102.7459,60.0718h33.7808l12.2978,117.0725,52.2206-117.0725h33.0999l-77.4694,169.6405h-35.1565Z"/>
    <path d="M327.7458,229.7123v-7.1703c0-8.1847,1.0283-17.745,2.7375-29.348-12.2978,26.6244-32.7664,40.9511-58.0291,40.9511-30.0428,0-51.5397-20.4686-51.5397-48.8022,0-40.2841,36.8657-62.4618,103.7603-62.4618,6.4894,0,10.5747,0,17.4115,.6809,1.0144-5.7946,1.3618-8.8794,1.3618-12.2839,0-16.7306-12.6313-27.3053-32.7664-27.3053-18.4259,0-29.6954,6.4755-39.2558,23.2061l-33.4473-10.5747c13.6596-26.2909,39.9367-40.965,74.0649-40.965,41.9794,0,68.6038,20.4825,68.6038,52.568,0,9.2129-.3335,12.6313-7.8512,53.5824-6.4755,34.8091-8.5321,48.8022-8.5321,58.3626,0,2.7375,0,4.7802,.3474,9.5603h-36.8657Zm-28.6671-81.916c-24.5818,4.7802-37.5466,16.3832-37.5466,33.7947,0,13.9931,9.8938,23.2061,25.5962,23.2061s30.0428-9.8938,40.965-27.9862c4.0854-7.5177,6.142-13.6596,10.9221-33.7947-7.5177,0-27.9862,2.7375-39.9367,4.7802Z"/>
    <path d="M690.2857,229.7123l28.3336-169.6405h39.2419l-28.3197,169.6405h-39.2558Zm31.7381-189.0947l6.8368-40.6176h38.9084l-6.8368,40.6176h-38.9084Z"/>
    <path d="M964.3535,229.7123l17.0641-102.732c1.7092-10.9221,2.0566-12.9787,2.0566-17.7589,0-14.3266-8.5321-22.1778-23.5535-22.1778-24.9153,0-41.2985,22.8726-49.1496,68.2564l-12.6313,74.4123h-37.1992l16.3832-98.6466c3.071-17.3976,3.071-17.745,3.071-23.5396,0-12.9787-7.8512-20.8299-21.1634-20.8299-14.3266,0-26.6244,8.1986-36.1709,24.2344-7.5177,12.6313-11.9504,27.9862-17.4115,60.0718l-9.9077,58.71h-37.8801l28.3336-169.6405h37.1992l-6.142,37.894c11.2556-27.3053,31.4046-43.0077,54.9442-43.0077,25.6101,0,39.6032,12.9648,44.0359,39.9367,19.1207-29.0145,35.5039-39.9367,60.4192-39.9367,27.6388,0,46.7595,18.7733,46.7595,46.0786q0,9.2129-4.0993,32.419l-16.0497,96.2565h-38.9084Z"/>
    <path d="M1178.0008,181.9245c-15.7023,34.823-39.9367,51.8871-74.0649,51.8871-44.0359,0-71.3413-28.6671-71.3413-74.7458,0-59.7383,36.5183-103.4268,86.0153-103.4268,44.0221,0,68.9512,29.0145,68.9512,80.5542,0,5.1137,0,7.8512-.6948,13.3122h-116.3777c-1.0283,5.7946-1.3757,8.5321-1.3757,12.6313,0,26.2771,13.6596,42.3129,35.8374,42.3129,17.7589,0,29.6954-9.2129,39.9367-31.3907l33.1138,8.8656Zm-25.9436-56.6534c-.3474-28.6671-11.603-43.3551-33.1138-43.3551-22.5252,0-38.2275,15.0214-44.7029,43.3551h77.8168Z"/>
  </g>
  <path d="M443.8141,167.4344c-1.3618,7.8512-2.3901,15.7023-2.3901,18.7733,0,10.2412,8.1847,15.3688,23.887,15.3688,3.4184,0,6.142-.3474,12.2978-1.0283l-5.1276,30.7237c-16.7167,2.3762-18.0924,2.3762-24.2344,2.3762-28.3197,0-45.0503-13.2983-45.0503-36.5183,0-4.4328,0-5.4611,3.7519-30.3763L435.2821,15.5527l34.1282-2.3901-25.5962,154.2717Z"/>
  <path d="M533.0032,15.5527l34.1282-2.3901-25.5962,154.2717c-1.3618,7.8512-2.3901,15.7023-2.3901,18.7733,0,10.2412,8.1847,15.3688,23.887,15.3688,3.4184,0,6.142-.3474,12.2978-1.0283l-5.1276,30.7237c-16.7167,2.3762-18.0924,2.3762-24.2344,2.3762-28.3336,0-45.0503-13.2983-45.0503-36.5183,0-4.4328,0-5.4611,3.7519-30.3763l28.3336-151.2007Z"/>
  <path d="M639.2565,167.4344c-1.3618,7.8512-2.3901,15.7023-2.3901,18.7733,0,10.2412,8.1847,15.3688,23.887,15.3688,3.4184,0,6.142-.3474,12.2978-1.0283l-5.1276,30.7237c-16.7167,2.3762-18.0924,2.3762-24.2344,2.3762-28.3197,0-45.0503-13.2983-45.0503-36.5183,0-4.4328,0-5.4611,3.7519-30.3763l28.3336-151.2007,34.1282-2.3901-25.5962,154.2717Zm-54.1865-50.7492"/>
  <polygon points="682.7242 87.5753 583.8777 121.5397 491.9559 78.9513 393.6 117.1521 399.2918 86.7757 492.8387 49.1598 586.55 91.5306 688.416 57.199 682.7242 87.5753"/>
</svg>